<?xml version="1.0" standalone="no"?>
<!DOCTYPE svg PUBLIC "-//W3C//DTD SVG 20010904//EN"
 "http://www.w3.org/TR/2001/REC-SVG-20010904/DTD/svg10.dtd">
<svg version="1.0" xmlns="http://www.w3.org/2000/svg"
 width="1200.000000pt" height="1200.000000pt" viewBox="0 0 1200.000000 1200.000000"
 preserveAspectRatio="xMidYMid meet">

<g transform="translate(0.000000,1200.000000) scale(0.100000,-0.100000)"
fill="#000000" stroke="none">
<path d="M2695 7068 c143 -145 438 -442 655 -660 l395 -398 -205 -207 c-113
-115 -406 -410 -650 -656 -245 -247 -447 -450 -449 -453 -2 -2 585 -4 1305 -4
l1309 0 -480 483 c-264 265 -558 562 -654 659 l-175 177 653 660 653 661
-1308 0 -1309 0 260 -262z"/>
<path d="M1775 6664 l-648 -656 234 -236 c129 -130 422 -426 652 -657 l417
-420 0 1313 c0 721 -1 1312 -3 1312 -2 0 -295 -295 -652 -656z"/>
<path d="M5060 6009 l1 -1314 649 655 c357 360 648 658 647 661 -1 4 -293 300
-649 659 l-648 653 0 -1314z"/>
<path d="M8215 6563 c-136 -29 -236 -104 -269 -201 -22 -63 -20 -167 3 -218
43 -94 129 -147 355 -214 211 -63 246 -86 246 -164 0 -92 -82 -151 -211 -151
-66 0 -81 4 -117 27 -45 30 -67 64 -77 121 l-7 37 -120 0 -121 0 7 -52 c10
-81 62 -175 121 -220 80 -61 165 -83 320 -82 148 1 220 19 313 80 159 104 191
327 64 446 -59 55 -121 85 -292 138 -209 66 -260 98 -260 163 0 73 62 131 152
143 94 13 176 -34 198 -114 l11 -42 121 0 120 0 -7 48 c-16 109 -77 192 -171
233 -94 40 -253 49 -379 22z"/>
<path d="M10301 6565 c-184 -42 -314 -172 -366 -365 -23 -83 -30 -225 -16
-320 41 -278 196 -422 471 -437 259 -14 442 101 485 305 l7 32 -124 0 -124 0
-12 -34 c-31 -84 -96 -126 -194 -126 -165 1 -256 119 -265 345 -12 269 95 436
278 435 87 -1 156 -52 176 -130 l9 -35 124 -3 123 -3 -6 52 c-16 131 -106 228
-256 275 -68 22 -233 27 -310 9z"/>
<path d="M8920 6009 l0 -551 293 4 c266 4 298 6 357 26 163 54 242 161 227
308 -11 104 -73 177 -187 218 l-62 23 48 18 c212 81 217 359 9 463 -69 34
-147 42 -422 42 l-263 0 0 -551z m512 368 c110 -47 119 -195 14 -249 -35 -18
-59 -22 -166 -22 l-125 -1 -3 134 c-1 74 0 142 3 150 5 12 26 13 124 8 67 -3
134 -12 153 -20z m37 -455 c77 -37 106 -145 61 -220 -34 -56 -88 -72 -242 -75
l-133 -2 -3 150 c-1 82 0 156 3 164 8 21 264 8 314 -17z"/>
<path d="M6810 6005 l0 -545 120 0 120 0 0 235 0 235 240 0 240 0 0 -235 0
-235 120 0 120 0 0 545 0 545 -120 0 -120 0 0 -225 0 -225 -240 0 -240 0 0
225 0 225 -120 0 -120 0 0 -545z"/>
</g>
</svg>
